<svg width="30" height="30" viewBox="0 0 30 30" fill="none" xmlns="http://www.w3.org/2000/svg">
<g clip-path="url(#clip0_25_260)">
<rect width="30" height="30" fill="white"/>
<rect width="30" height="30" fill="#1E293B"/>
<path d="M4 19.8345V10.1659H8.61937C9.72337 10.1659 10.6966 10.3684 11.5392 10.7736C12.3817 11.1696 13.0402 11.7267 13.5147 12.4449C13.9893 13.1631 14.2265 14.0149 14.2265 15.0002C14.2265 15.9762 13.9893 16.828 13.5147 17.5554C13.0402 18.2737 12.3817 18.8354 11.5392 19.2405C10.6966 19.6365 9.72337 19.8345 8.61937 19.8345H4ZM6.35326 17.9974H8.50316C9.18105 17.9974 9.76695 17.8777 10.2608 17.6383C10.7644 17.3897 11.1518 17.0398 11.4229 16.5886C11.7038 16.1374 11.8442 15.6079 11.8442 15.0002C11.8442 14.3832 11.7038 13.8537 11.4229 13.4118C11.1518 12.9606 10.7644 12.6152 10.2608 12.3758C9.76695 12.1272 9.18105 12.0029 8.50316 12.0029H6.35326V17.9974Z" fill="#F1F5F9"/>
<path d="M21.4509 20C20.6472 20 19.9015 19.8757 19.2139 19.6271C18.536 19.3785 17.9453 19.0285 17.4417 18.5773C16.9478 18.1261 16.5604 17.5967 16.2796 16.989C16.0084 16.3812 15.8728 15.7182 15.8728 15C15.8728 14.2818 16.0084 13.6188 16.2796 13.011C16.5604 12.4033 16.9526 11.8739 17.4562 11.4227C17.9598 10.9714 18.5505 10.6215 19.2284 10.3729C19.9063 10.1243 20.6423 10 21.4364 10C22.2402 10 22.9762 10.1243 23.6444 10.3729C24.3223 10.6215 24.9082 10.9714 25.4021 11.4227C25.9057 11.8739 26.2979 12.4033 26.5787 13.011C26.8596 13.6096 27 14.2726 27 15C27 15.7182 26.8596 16.3858 26.5787 17.0028C26.2979 17.6105 25.9057 18.14 25.4021 18.5912C24.9082 19.0332 24.3223 19.3785 23.6444 19.6271C22.9762 19.8757 22.2451 20 21.4509 20ZM21.4364 18.0939C21.8916 18.0939 22.308 18.0203 22.6857 17.8729C23.0731 17.7256 23.412 17.5138 23.7025 17.2376C23.9931 16.9613 24.2158 16.6344 24.3707 16.2569C24.5354 15.8794 24.6177 15.4604 24.6177 15C24.6177 14.5396 24.5354 14.1206 24.3707 13.7431C24.2158 13.3656 23.9931 13.0387 23.7025 12.7624C23.4217 12.4862 23.0876 12.2744 22.7002 12.1271C22.3128 11.9797 21.8916 11.9061 21.4364 11.9061C20.9813 11.9061 20.56 11.9797 20.1726 12.1271C19.7949 12.2744 19.4608 12.4862 19.1703 12.7624C18.8798 13.0387 18.6522 13.3656 18.4876 13.7431C18.3326 14.1206 18.2552 14.5396 18.2552 15C18.2552 15.4512 18.3326 15.8702 18.4876 16.2569C18.6522 16.6344 18.8749 16.9613 19.1558 17.2376C19.4463 17.5138 19.7853 17.7256 20.1726 17.8729C20.56 18.0203 20.9813 18.0939 21.4364 18.0939Z" fill="#F1F5F9"/>
</g>
<defs>
<clipPath id="clip0_25_260">
<rect width="30" height="30" fill="white"/>
</clipPath>
</defs>
</svg>
