<svg width="123" height="19" viewBox="0 0 123 19" fill="none" xmlns="http://www.w3.org/2000/svg">
<path d="M-0.00805664 18V1.19999H7.62394C9.44794 1.19999 11.0559 1.55199 12.4479 2.25599C13.8399 2.94399 14.9279 3.91199 15.7119 5.15999C16.4959 6.40799 16.8879 7.88799 16.8879 9.59999C16.8879 11.296 16.4959 12.776 15.7119 14.04C14.9279 15.288 13.8399 16.264 12.4479 16.968C11.0559 17.656 9.44794 18 7.62394 18H-0.00805664ZM3.87994 14.808H7.43194C8.55194 14.808 9.51994 14.6 10.3359 14.184C11.1679 13.752 11.8079 13.144 12.2559 12.36C12.7199 11.576 12.9519 10.656 12.9519 9.59999C12.9519 8.52799 12.7199 7.60799 12.2559 6.83999C11.8079 6.05599 11.1679 5.45599 10.3359 5.03999C9.51994 4.60799 8.55194 4.39199 7.43194 4.39199H3.87994V14.808Z" fill="#fff"/>
<path d="M37.8201 18.288C36.4921 18.288 35.2601 18.072 34.1241 17.64C33.0041 17.208 32.0281 16.6 31.1961 15.816C30.3801 15.032 29.7401 14.112 29.2761 13.056C28.8281 12 28.6041 10.848 28.6041 9.59999C28.6041 8.35199 28.8281 7.19999 29.2761 6.14399C29.7401 5.08799 30.3881 4.16799 31.2201 3.38399C32.0521 2.59999 33.0281 1.99199 34.1481 1.55999C35.2681 1.12799 36.4841 0.911987 37.7961 0.911987C39.1241 0.911987 40.3401 1.12799 41.4441 1.55999C42.5641 1.99199 43.5321 2.59999 44.3481 3.38399C45.1801 4.16799 45.8281 5.08799 46.2921 6.14399C46.7561 7.18399 46.9881 8.33599 46.9881 9.59999C46.9881 10.848 46.7561 12.008 46.2921 13.08C45.8281 14.136 45.1801 15.056 44.3481 15.84C43.5321 16.608 42.5641 17.208 41.4441 17.64C40.3401 18.072 39.1321 18.288 37.8201 18.288ZM37.7961 14.976C38.5481 14.976 39.2361 14.848 39.8601 14.592C40.5001 14.336 41.0601 13.968 41.5401 13.488C42.0201 13.008 42.3881 12.44 42.6441 11.784C42.9161 11.128 43.0521 10.4 43.0521 9.59999C43.0521 8.79999 42.9161 8.07199 42.6441 7.41599C42.3881 6.75999 42.0201 6.19199 41.5401 5.71199C41.0761 5.23199 40.5241 4.86399 39.8841 4.60799C39.2441 4.35199 38.5481 4.22399 37.7961 4.22399C37.0441 4.22399 36.3481 4.35199 35.7081 4.60799C35.0841 4.86399 34.5321 5.23199 34.0521 5.71199C33.5721 6.19199 33.1961 6.75999 32.9241 7.41599C32.6681 8.07199 32.5401 8.79999 32.5401 9.59999C32.5401 10.384 32.6681 11.112 32.9241 11.784C33.1961 12.44 33.5641 13.008 34.0281 13.488C34.5081 13.968 35.0681 14.336 35.7081 14.592C36.3481 14.848 37.0441 14.976 37.7961 14.976Z" fill="#fff"/>
<path d="M65.2701 18.288C63.9261 18.288 62.6381 18.112 61.4061 17.76C60.1741 17.392 59.1821 16.92 58.4301 16.344L59.7501 13.416C60.4701 13.928 61.3181 14.352 62.2941 14.688C63.2861 15.008 64.2861 15.168 65.2941 15.168C66.0621 15.168 66.6781 15.096 67.1421 14.952C67.6221 14.792 67.9741 14.576 68.1981 14.304C68.4221 14.032 68.5341 13.72 68.5341 13.368C68.5341 12.92 68.3581 12.568 68.0061 12.312C67.6541 12.04 67.1901 11.824 66.6141 11.664C66.0381 11.488 65.3981 11.328 64.6941 11.184C64.0061 11.024 63.3101 10.832 62.6061 10.608C61.9181 10.384 61.2861 10.096 60.7101 9.74399C60.1341 9.39199 59.6621 8.92799 59.2941 8.35199C58.9421 7.77599 58.7661 7.03999 58.7661 6.14399C58.7661 5.18399 59.0221 4.31199 59.5341 3.52799C60.0621 2.72799 60.8461 2.09599 61.8861 1.63199C62.9421 1.15199 64.2621 0.911987 65.8461 0.911987C66.9021 0.911987 67.9421 1.03999 68.9661 1.29599C69.9901 1.53599 70.8941 1.90399 71.6781 2.39999L70.4781 5.35199C69.6941 4.90399 68.9101 4.57599 68.1261 4.36799C67.3421 4.14399 66.5741 4.03199 65.8221 4.03199C65.0701 4.03199 64.4541 4.11999 63.9741 4.29599C63.4941 4.47199 63.1501 4.70399 62.9421 4.99199C62.7341 5.26399 62.6301 5.58399 62.6301 5.95199C62.6301 6.38399 62.8061 6.73599 63.1581 7.00799C63.5101 7.26399 63.9741 7.47199 64.5501 7.63199C65.1261 7.79199 65.7581 7.95199 66.4461 8.11199C67.1501 8.27199 67.8461 8.45599 68.5341 8.66399C69.2381 8.87199 69.8781 9.15199 70.4541 9.50399C71.0301 9.85599 71.4941 10.32 71.8461 10.896C72.2141 11.472 72.3981 12.2 72.3981 13.08C72.3981 14.024 72.1341 14.888 71.6061 15.672C71.0781 16.456 70.2861 17.088 69.2301 17.568C68.1901 18.048 66.8701 18.288 65.2701 18.288Z" fill="#fff"/>
<path d="M90.4148 18.288C89.0708 18.288 87.7828 18.112 86.5508 17.76C85.3188 17.392 84.3268 16.92 83.5748 16.344L84.8948 13.416C85.6148 13.928 86.4628 14.352 87.4388 14.688C88.4308 15.008 89.4308 15.168 90.4388 15.168C91.2068 15.168 91.8228 15.096 92.2868 14.952C92.7668 14.792 93.1188 14.576 93.3428 14.304C93.5668 14.032 93.6788 13.72 93.6788 13.368C93.6788 12.92 93.5028 12.568 93.1508 12.312C92.7988 12.04 92.3348 11.824 91.7588 11.664C91.1828 11.488 90.5428 11.328 89.8388 11.184C89.1508 11.024 88.4548 10.832 87.7508 10.608C87.0628 10.384 86.4308 10.096 85.8548 9.74399C85.2788 9.39199 84.8068 8.92799 84.4388 8.35199C84.0868 7.77599 83.9108 7.03999 83.9108 6.14399C83.9108 5.18399 84.1668 4.31199 84.6788 3.52799C85.2068 2.72799 85.9908 2.09599 87.0308 1.63199C88.0868 1.15199 89.4068 0.911987 90.9908 0.911987C92.0468 0.911987 93.0868 1.03999 94.1108 1.29599C95.1348 1.53599 96.0388 1.90399 96.8228 2.39999L95.6228 5.35199C94.8388 4.90399 94.0548 4.57599 93.2708 4.36799C92.4868 4.14399 91.7188 4.03199 90.9668 4.03199C90.2148 4.03199 89.5988 4.11999 89.1188 4.29599C88.6388 4.47199 88.2948 4.70399 88.0868 4.99199C87.8788 5.26399 87.7748 5.58399 87.7748 5.95199C87.7748 6.38399 87.9508 6.73599 88.3028 7.00799C88.6548 7.26399 89.1188 7.47199 89.6948 7.63199C90.2708 7.79199 90.9028 7.95199 91.5908 8.11199C92.2948 8.27199 92.9908 8.45599 93.6788 8.66399C94.3828 8.87199 95.0228 9.15199 95.5988 9.50399C96.1748 9.85599 96.6388 10.32 96.9908 10.896C97.3588 11.472 97.5428 12.2 97.5428 13.08C97.5428 14.024 97.2788 14.888 96.7508 15.672C96.2228 16.456 95.4308 17.088 94.3748 17.568C93.3348 18.048 92.0148 18.288 90.4148 18.288Z" fill="#fff"/>
<path d="M115.559 18.288C114.215 18.288 112.927 18.112 111.695 17.76C110.463 17.392 109.471 16.92 108.719 16.344L110.039 13.416C110.759 13.928 111.607 14.352 112.583 14.688C113.575 15.008 114.575 15.168 115.583 15.168C116.351 15.168 116.967 15.096 117.431 14.952C117.911 14.792 118.263 14.576 118.487 14.304C118.711 14.032 118.823 13.72 118.823 13.368C118.823 12.92 118.647 12.568 118.295 12.312C117.943 12.04 117.479 11.824 116.903 11.664C116.327 11.488 115.687 11.328 114.983 11.184C114.295 11.024 113.599 10.832 112.895 10.608C112.207 10.384 111.575 10.096 110.999 9.74399C110.423 9.39199 109.951 8.92799 109.583 8.35199C109.231 7.77599 109.055 7.03999 109.055 6.14399C109.055 5.18399 109.311 4.31199 109.823 3.52799C110.351 2.72799 111.135 2.09599 112.175 1.63199C113.231 1.15199 114.551 0.911987 116.135 0.911987C117.191 0.911987 118.231 1.03999 119.255 1.29599C120.279 1.53599 121.183 1.90399 121.967 2.39999L120.767 5.35199C119.983 4.90399 119.199 4.57599 118.415 4.36799C117.631 4.14399 116.863 4.03199 116.111 4.03199C115.359 4.03199 114.743 4.11999 114.263 4.29599C113.783 4.47199 113.439 4.70399 113.231 4.99199C113.023 5.26399 112.919 5.58399 112.919 5.95199C112.919 6.38399 113.095 6.73599 113.447 7.00799C113.799 7.26399 114.263 7.47199 114.839 7.63199C115.415 7.79199 116.047 7.95199 116.735 8.11199C117.439 8.27199 118.135 8.45599 118.823 8.66399C119.527 8.87199 120.167 9.15199 120.743 9.50399C121.319 9.85599 121.783 10.32 122.135 10.896C122.503 11.472 122.687 12.2 122.687 13.08C122.687 14.024 122.423 14.888 121.895 15.672C121.367 16.456 120.575 17.088 119.519 17.568C118.479 18.048 117.159 18.288 115.559 18.288Z" fill="#fff"/>
</svg>
