<?xml version="1.0" standalone="no"?>
<!DOCTYPE svg PUBLIC "-//W3C//DTD SVG 20010904//EN"
 "http://www.w3.org/TR/2001/REC-SVG-20010904/DTD/svg10.dtd">
<svg version="1.0" xmlns="http://www.w3.org/2000/svg"
 width="260.000000pt" height="260.000000pt" viewBox="0 0 260.000000 260.000000"
 preserveAspectRatio="xMidYMid meet">
<metadata>
Created by potrace 1.14, written by Peter Selinger 2001-2017
</metadata>
<g transform="translate(0.000000,260.000000) scale(0.100000,-0.100000)"
fill="#000000" stroke="none">
<path d="M1715 1730 c-76 -16 -155 -52 -208 -93 -57 -45 -66 -55 -102 -109
-50 -75 -65 -133 -62 -242 2 -92 6 -107 36 -168 76 -154 219 -242 411 -255
220 -14 401 81 487 254 35 70 37 82 38 167 0 105 -7 140 -39 204 -78 153 -226
240 -421 247 -55 2 -118 0 -140 -5z m247 -188 c25 -12 62 -41 82 -64 113 -131
73 -340 -80 -418 -40 -21 -62 -25 -138 -25 -74 0 -98 4 -131 22 -95 51 -145
135 -145 243 1 124 73 223 190 261 47 15 172 5 222 -19z"/>
<path d="M290 1300 l0 -426 258 1 c212 2 267 5 317 19 213 63 325 203 326 411
1 145 -72 274 -196 345 -117 67 -156 73 -462 74 l-243 2 0 -426z m495 251
c139 -38 218 -163 191 -301 -23 -112 -101 -188 -213 -206 -60 -10 -254 -10
-260 -1 -4 7 -8 492 -4 517 2 10 246 3 286 -9z"/>
</g>
</svg>
